<?xml version="1.0" encoding="UTF-8"?>
<svg id="_图层_2" xmlns="http://www.w3.org/2000/svg" version="1.1" viewBox="0 0 100.3 84.3">
  <!-- Generator: Adobe Illustrator 30.3.0, SVG Export Plug-In . SVG Version: 2.1.1 Build 104)  -->
  <defs>
    <style>
      .st0 {
        fill: #57599e;
      }
    </style>
  </defs>
  <path class="st0" d="M98,26.2c-.9-1.7-2-3.3-3.3-4.6-1.4-1.4-2.9-2.5-4.6-3.3,2,3.9,2.6,8.7,2.1,13.8-1.1,10.4-6.9,22.4-16.8,32.7-.4.4-.8.9-1.3,1.3l8,8,.8-.8c10.2-10.5,16.2-22.7,17.3-33.2.5-5.2-.2-9.9-2.1-13.8Z"/>
  <path class="st0" d="M66.1,58.1c-10.7,10.7-23.2,17-34,18.1-5.2.5-9.9-.1-13.8-2.1.9,1.7,2,3.3,3.3,4.6,1.4,1.4,2.9,2.5,4.6,3.3,3.9,2,8.7,2.6,13.8,2.1,10.5-1.1,22.7-7.1,33.2-17.3l.8-.8-8-8h0Z"/>
  <path class="st0" d="M84.2,24.1c.3-2.7.2-5.3-.2-7.8-.4-2.2-1-4.2-1.9-6.1-.9-1.7-2-3.3-3.3-4.6-1.4-1.4-2.9-2.5-4.6-3.3-3.9-2-8.7-2.6-13.8-2.1-10.8,1.1-23.4,7.4-34,18.1h0s-8-8-8-8C7.6,20.9,1.3,33.5.2,44.3c-.5,5.2.1,9.9,2.1,13.8.9,1.7,2,3.3,3.3,4.6,1.4,1.4,2.9,2.5,4.6,3.3,1.9.9,3.9,1.6,6.1,1.9,2.4.4,5.1.5,7.8.2,1.1-.1,2.3-.3,3.4-.5,10-2,21-8,30.6-17.6h0s0,0,0,0l8,8c9.5-9.5,15.6-20.6,17.6-30.6.2-1.2.4-2.3.5-3.4Z"/>
</svg>