<?xml version="1.0" encoding="UTF-8"?>
<svg id="_图层_2" data-name="图层 2" xmlns="http://www.w3.org/2000/svg" viewBox="0 0 100.29 84.35">
  <defs>
    <style>
      .cls-1 {
        fill: #57599e;
      }
    </style>
  </defs>
  <g id="_图层_1-2" data-name="图层 1">
    <g>
      <path class="cls-1" d="M72.72,16.64c-.45-1.18-1.11-2.23-1.98-3.1-1.39-1.39-3.21-2.23-5.34-2.57-6.96-1.11-17.3,3.13-26.94,11.32,0,0,0,0,0,0-.47.4-.94.81-1.4,1.23-.52.47-1.05.95-1.56,1.44l-.03.03c-.43.41-.85.82-1.27,1.24l7.98,7.98c9.53-9.53,20.6-15.6,30.54-17.57Z"/>
      <path class="cls-1" d="M42.18,34.21c-7.27,7.27-12.28,15.33-14.34,22.26,6.93-2.07,14.99-7.08,22.26-14.35l-7.92-7.92Z"/>
      <path class="cls-1" d="M58.06,50.09c7.27-7.27,12.28-15.33,14.35-22.26-6.94,2.06-14.99,7.07-22.26,14.34l7.92,7.92Z"/>
      <path class="cls-1" d="M26.23,18.26c-.42.42-.83.84-1.24,1.27l-.03.03c-.49.52-.97,1.04-1.44,1.56-.42.47-.83.93-1.23,1.4h0c-8.19,9.64-12.43,19.98-11.32,26.94.34,2.14,1.18,3.96,2.57,5.34.87.87,1.91,1.53,3.1,1.98,1.97-9.94,8.04-21.01,17.57-30.54l-7.98-7.98Z"/>
      <path class="cls-1" d="M82.07,10.25c-.86-1.71-1.97-3.27-3.34-4.64-1.36-1.36-2.92-2.47-4.63-3.33l-5.86,5.86c5.16-.53,9.91.14,13.83,2.1Z"/>
      <path class="cls-1" d="M92.14,32.05l5.87-5.87c-.86-1.71-1.97-3.27-3.33-4.63-1.36-1.36-2.92-2.47-4.64-3.34,1.97,3.92,2.63,8.67,2.1,13.83Z"/>
      <path class="cls-1" d="M35.47,25l.03-.03c.52-.49,1.04-.97,1.56-1.44.46-.42.93-.82,1.4-1.23,0,0,0,0,0,0,9.65-8.28,20.39-13.2,29.77-14.16l5.86-5.86c-3.92-1.97-8.67-2.64-13.84-2.1l-26.06,26.06c.42-.42.84-.83,1.27-1.24Z"/>
      <path class="cls-1" d="M68.24,8.14l-2.84,2.84c2.14.34,3.96,1.18,5.34,2.57.87.87,1.53,1.91,1.98,3.1,1.18-.23,2.33-.41,3.47-.52l5.87-5.87c-3.92-1.97-8.67-2.64-13.83-2.1Z"/>
      <path class="cls-1" d="M83.99,16.3c-.36-2.17-1-4.2-1.93-6.06l-5.87,5.87c2.74-.28,5.35-.23,7.8.18Z"/>
      <path class="cls-1" d="M75.3,64.8c-.41.43-.83.86-1.25,1.28l26.07-26.07c.52-5.16-.15-9.9-2.12-13.82l-5.87,5.87c-1.06,10.35-6.95,22.37-16.84,32.74Z"/>
      <path class="cls-1" d="M76.19,16.12l-2.87,2.87c.4,2.56.07,5.58-.92,8.85,3.29-1,6.35-1.32,8.92-.91l2.84-2.84c.28-2.73.23-5.34-.18-7.78-2.45-.41-5.06-.47-7.8-.18Z"/>
      <path class="cls-1" d="M82.02,74.05l.84-.84c10.16-10.48,16.19-22.71,17.26-33.21l-26.07,26.07,7.97,7.97Z"/>
      <path class="cls-1" d="M40.01,84.18c10.5-1.07,22.72-7.1,33.21-17.26l.84-.84-7.97-7.97-26.07,26.07Z"/>
      <path class="cls-1" d="M37.06,23.53c.47-.42.93-.83,1.4-1.23-.47.4-.94.81-1.4,1.23Z"/>
      <path class="cls-1" d="M65.4,10.98l2.84-2.84c-9.38.96-20.12,5.88-29.77,14.16,9.64-8.19,19.97-12.43,26.94-11.32Z"/>
      <path class="cls-1" d="M27.53,17c.52-.49,1.04-.97,1.56-1.44-.52.47-1.05.95-1.56,1.44Z"/>
      <path class="cls-1" d="M38.46,22.3s0,0,0,0c0,0,0,0,0,0Z"/>
      <path class="cls-1" d="M18.27,10.3C7.61,20.95,1.28,33.54.18,44.32l26.06-26.06-7.97-7.97Z"/>
      <path class="cls-1" d="M60.26.18c-10.78,1.1-23.37,7.44-34.02,18.09l7.97,7.97L60.26.18Z"/>
      <path class="cls-1" d="M83.65,27.53c.23-1.17.41-2.32.52-3.45l-2.84,2.84c.82.12,1.6.33,2.32.61Z"/>
      <path class="cls-1" d="M76.19,16.12c-1.14.11-2.29.29-3.47.52.28.73.48,1.51.61,2.34l2.87-2.87Z"/>
      <path class="cls-1" d="M34.21,26.24c-9.53,9.53-15.6,20.6-17.57,30.54.73.28,1.51.48,2.34.61l23.18-23.18-7.96-7.96Z"/>
      <path class="cls-1" d="M50.14,42.17l23.18-23.18c-.12-.83-.33-1.62-.61-2.34-9.94,1.97-21.01,8.04-30.54,17.57l7.96,7.96Z"/>
      <path class="cls-1" d="M81.33,26.92l-23.22,23.22,7.97,7.97c9.54-9.54,15.61-20.63,17.57-30.58-.72-.28-1.49-.49-2.32-.61Z"/>
      <path class="cls-1" d="M26.92,65.4c.12.82.33,1.6.61,2.32,9.95-1.96,21.04-8.03,30.58-17.57l-7.97-7.97-23.22,23.22Z"/>
      <path class="cls-1" d="M72.41,27.83c-2.07,6.93-7.08,14.99-14.35,22.26l.05.05,23.22-23.22c-2.58-.41-5.63-.09-8.92.91Z"/>
      <path class="cls-1" d="M50.15,42.18c7.27-7.27,15.33-12.28,22.26-14.34.98-3.27,1.31-6.28.92-8.85l-23.18,23.18h0Z"/>
      <path class="cls-1" d="M27.84,56.47c-1,3.29-1.32,6.35-.91,8.92l23.22-23.22-.05-.05c-7.27,7.27-15.33,12.28-22.26,14.35Z"/>
      <path class="cls-1" d="M42.17,34.2l-23.18,23.18c2.56.4,5.58.07,8.85-.92,2.06-6.94,7.07-14.99,14.34-22.26h0Z"/>
      <path class="cls-1" d="M22.3,22.52h0c.4-.47.81-.94,1.23-1.4.47-.52.95-1.05,1.44-1.56l.03-.03c.41-.43.82-.85,1.24-1.27L.18,44.32c-.53,5.17.14,9.92,2.1,13.84l5.86-5.86c.96-9.38,5.88-20.12,14.16-29.77Z"/>
      <path class="cls-1" d="M32.06,76.2l-5.87,5.87c3.91,1.96,8.66,2.64,13.82,2.12l26.07-26.07c-10.65,10.65-23.24,16.99-34.02,18.09Z"/>
      <path class="cls-1" d="M22.3,22.52c.4-.47.81-.94,1.23-1.4-.42.46-.82.93-1.23,1.4Z"/>
      <path class="cls-1" d="M22.3,22.52c-8.28,9.65-13.2,20.39-14.16,29.77l2.84-2.84c-1.11-6.96,3.13-17.3,11.32-26.94Z"/>
      <path class="cls-1" d="M22.3,22.52h0s0,0,0,0Z"/>
      <path class="cls-1" d="M23.53,21.12c.47-.52.95-1.05,1.44-1.56-.49.52-.97,1.04-1.44,1.56Z"/>
      <path class="cls-1" d="M27.84,56.47c-3.27.98-6.28,1.31-8.85.92l-2.87,2.87c-.28,2.74-.23,5.35.18,7.8,2.44.41,5.05.46,7.78.18l2.84-2.84c-.41-2.58-.09-5.63.91-8.92Z"/>
      <path class="cls-1" d="M16.12,60.26l2.87-2.87c-.83-.12-1.62-.33-2.34-.61-.23,1.18-.41,2.33-.52,3.47Z"/>
      <path class="cls-1" d="M24.09,68.23c1.13-.11,2.28-.28,3.45-.52-.28-.72-.49-1.49-.61-2.32l-2.84,2.84Z"/>
      <path class="cls-1" d="M16.64,56.78c-1.18-.45-2.23-1.11-3.1-1.98-1.39-1.39-2.23-3.21-2.57-5.34l-2.84,2.84c-.53,5.16.14,9.91,2.1,13.83l5.87-5.87c.11-1.14.29-2.29.52-3.47Z"/>
      <path class="cls-1" d="M16.12,60.26l-5.87,5.87c1.85.93,3.88,1.57,6.06,1.93-.41-2.45-.47-5.06-.18-7.8Z"/>
      <path class="cls-1" d="M18.22,74.1c.86,1.72,1.97,3.27,3.34,4.64s2.92,2.47,4.63,3.33l5.87-5.87c-5.16.53-9.91-.13-13.83-2.1Z"/>
      <path class="cls-1" d="M8.14,52.3l-5.86,5.86c.86,1.71,1.97,3.27,3.33,4.63,1.37,1.37,2.92,2.48,4.64,3.34-1.97-3.92-2.64-8.67-2.1-13.83Z"/>
    </g>
  </g>
</svg>