<?xml version="1.0" encoding="UTF-8"?>
<svg id="_图层_2" data-name="图层 2" xmlns="http://www.w3.org/2000/svg" viewBox="0 0 217.52 31.66">
  <defs>
    <style>
      .cls-1 {
        fill: #c0ac97;
      }
    </style>
  </defs>
  <g id="_图层_1-2" data-name="图层 1">
    <g>
      <path class="cls-1" d="M91.01,13.86c1.65-.97,2.52-2.59,2.52-4.69,0-2.76-1.43-6.04-8.26-6.04h-17.17v22.28h17.92c6.98,0,8.45-3.37,8.45-6.2,0-2.55-1.19-4.39-3.45-5.35ZM84.79,11.5h-9.87v-2.73h9.87c1.19,0,1.87.5,1.87,1.37s-.68,1.37-1.87,1.37ZM74.92,16.9h10.71c1.25,0,1.96.52,1.96,1.43s-.71,1.46-1.96,1.46h-10.71v-2.89Z"/>
      <path class="cls-1" d="M111.55,12.05v-6.36h-.2c-4.44,0-7.57,1.25-9.31,3.72v-3.15h-6.36v19.15h6.36v-7.35c0-4.2,2.78-6,9.31-6h.2Z"/>
      <path class="cls-1" d="M131.27,8.78c-1.93-2.05-4.91-3.09-8.87-3.09-7.28,0-11.3,3.6-11.3,10.14s4.01,10.14,11.3,10.14c3.96,0,6.94-1.04,8.87-3.09v2.53h6.36V6.25h-6.36v2.53ZM124.37,19.85c-6.12,0-6.9-2.15-6.9-4.02s.78-4.02,6.9-4.02,6.9,2.15,6.9,4.02-.78,4.02-6.9,4.02Z"/>
      <path class="cls-1" d="M154.11,5.69c-3.65,0-6.44,1.06-8.28,3.15v-2.59h-6.36v19.15h6.36v-9.01c0-3.12,2.25-4.84,6.34-4.84s6.06,1.65,6.06,4.9v8.95h6.36v-8.95c0-7.04-3.63-10.76-10.48-10.76Z"/>
      <path class="cls-1" d="M185.44,8.78c-1.93-2.05-4.91-3.09-8.87-3.09-7.28,0-11.3,3.6-11.3,10.14s4.01,10.14,11.3,10.14c3.96,0,6.94-1.04,8.87-3.09v2.53h6.36V0h-6.36v8.78ZM178.54,19.85c-6.12,0-6.9-2.15-6.9-4.02s.78-4.02,6.9-4.02,6.9,2.15,6.9,4.02-.78,4.02-6.9,4.02Z"/>
      <path class="cls-1" d="M205.2,13.38c-5.38,0-5.65-.53-5.65-1.4,0-.76.43-1.4,5.65-1.4s5.65.82,5.65,1.99v.2h6.36v-.2c0-4.83-3.59-6.89-12.01-6.89-10.59,0-12.01,3.12-12.01,6.17,0,4.07,1.97,6.42,12.01,6.42,5.7,0,5.96.48,5.96,1.4,0,.77-.45,1.4-5.96,1.4s-5.96-.74-5.96-1.96v-.2h-6.36v.2c0,4.8,3.69,6.86,12.33,6.86s12.33-1.73,12.33-6.17c0-4.16-1.97-6.42-12.33-6.42Z"/>
      <path class="cls-1" d="M20.13,14.83c0,3.26-2.11,4.77-6.65,4.77s-6.65-1.52-6.65-4.77V3.13H0v11.7c0,4.16,1.75,11.14,13.48,11.14s13.51-6.98,13.51-11.14V3.13h-6.86v11.7Z"/>
      <path class="cls-1" d="M44.04,5.69c-3.97,0-6.94,1.04-8.84,3.08v-2.52h-6.36v25.4h6.36v-8.77c1.9,2.04,4.87,3.08,8.84,3.08,7.28,0,11.3-3.6,11.3-10.14s-4.01-10.14-11.3-10.14ZM42.07,11.8c6.12,0,6.9,2.15,6.9,4.02s-.78,4.02-6.9,4.02-6.87-2.15-6.87-4.02.78-4.02,6.87-4.02Z"/>
      <rect class="cls-1" x="56.38" y="19.33" width="9.85" height="6.07"/>
    </g>
  </g>
</svg>