<?xml version="1.0" encoding="UTF-8"?>
<svg id="_图层_2" xmlns="http://www.w3.org/2000/svg" version="1.1" viewBox="0 0 301.8 61.8">
  <!-- Generator: Adobe Illustrator 30.3.0, SVG Export Plug-In . SVG Version: 2.1.1 Build 104)  -->
  <defs>
    <style>
      .st0 {
        fill: #c0ac97;
      }

      .st1 {
        fill: #57599e;
      }
    </style>
  </defs>
  <g id="_图层_1-2">
    <g>
      <g>
        <path class="st0" d="M175.3,14.4c1.6-1,2.5-2.6,2.5-4.7s-1.4-6-8.3-6h-17.2v22.3h17.9c7,0,8.4-3.4,8.4-6.2s-1.2-4.4-3.4-5.4h0ZM169.1,12h-9.9v-2.7h9.9c1.2,0,1.9.5,1.9,1.4s-.7,1.4-1.9,1.4h0ZM159.2,17.4h10.7c1.2,0,2,.5,2,1.4s-.7,1.5-2,1.5h-10.7v-2.9Z"/>
        <path class="st0" d="M195.8,12.6v-6.4h-.2c-4.4,0-7.6,1.2-9.3,3.7v-3.2h-6.4v19.1h6.4v-7.4c0-4.2,2.8-6,9.3-6h.2Z"/>
        <path class="st0" d="M215.6,9.3c-1.9-2.1-4.9-3.1-8.9-3.1-7.3,0-11.3,3.6-11.3,10.1s4,10.1,11.3,10.1,6.9-1,8.9-3.1v2.5h6.4V6.8h-6.4v2.5ZM208.7,20.4c-6.1,0-6.9-2.1-6.9-4s.8-4,6.9-4,6.9,2.1,6.9,4-.8,4-6.9,4Z"/>
        <path class="st0" d="M238.4,6.2c-3.6,0-6.4,1.1-8.3,3.2v-2.6h-6.4v19.1h6.4v-9c0-3.1,2.2-4.8,6.3-4.8s6.1,1.6,6.1,4.9v8.9h6.4v-9c0-7-3.6-10.8-10.5-10.8Z"/>
        <path class="st0" d="M269.7,9.3c-1.9-2.1-4.9-3.1-8.9-3.1-7.3,0-11.3,3.6-11.3,10.1s4,10.1,11.3,10.1,6.9-1,8.9-3.1v2.5h6.4V.5h-6.4v8.8ZM262.8,20.4c-6.1,0-6.9-2.1-6.9-4s.8-4,6.9-4,6.9,2.1,6.9,4-.8,4-6.9,4Z"/>
        <path class="st0" d="M289.5,13.9c-5.4,0-5.6-.5-5.6-1.4s.4-1.4,5.6-1.4,5.6.8,5.6,2v.2h6.4v-.2c0-4.8-3.6-6.9-12-6.9s-12,3.1-12,6.2,2,6.4,12,6.4,6,.5,6,1.4-.5,1.4-6,1.4-6-.7-6-2v-.2h-6.4v.2c0,4.8,3.7,6.9,12.3,6.9s12.3-1.7,12.3-6.2-2-6.4-12.3-6.4h0Z"/>
        <path class="st0" d="M104.4,15.4c0,3.3-2.1,4.8-6.7,4.8s-6.7-1.5-6.7-4.8V3.7h-6.8v11.7c0,4.2,1.8,11.1,13.5,11.1s13.5-7,13.5-11.1V3.7h-6.9s0,11.7,0,11.7Z"/>
        <path class="st0" d="M128.3,6.2c-4,0-6.9,1-8.8,3.1v-2.5h-6.4v25.4h6.4v-8.8c1.9,2,4.9,3.1,8.8,3.1,7.3,0,11.3-3.6,11.3-10.1s-4-10.1-11.3-10.1h0ZM126.4,12.3c6.1,0,6.9,2.1,6.9,4s-.8,4-6.9,4-6.9-2.1-6.9-4,.8-4,6.9-4Z"/>
        <rect class="st0" x="140.7" y="19.9" width="9.9" height="6.1"/>
      </g>
      <g>
        <g>
          <path class="st0" d="M92.2,35h7.1v6.9h10.2v5.1h-10.2v5h12.2v5.1h-28.9v-5.1h9.5v-17h0Z"/>
          <path class="st0" d="M116.5,41.3c.3.3.8.6,1.6,1.1,1.2.9,3.2,2.4,3.8,2.9l-3.3,2.9c-.6-.5-2.6-2-3.8-2.9-.7-.6-1.3-1-1.6-1.3,0,0,3.3-2.7,3.3-2.7ZM116.1,48.5l5,1c-1,3-2.2,5.9-2.8,8.7l-5-1.8c.7-2,1.9-4.1,2.8-7.8ZM130.8,54.8c0,1.9-1,2.9-3.2,2.9h-1.2c-.7,0-1.1,0-1.5,0,0-.3-.2-.7-.2-1.2-.2-.5-.3-.9-.4-1.2-.2.7-.6,1.3-1.5,2.7-1.2-1-3-1.4-4-2.1,1.4-2.1,2.5-5.2,2.6-9.4,0-2,0-3.7.1-5h-1.1v-2.8l-2.6,1.8c-.8-.8-2.1-1.8-4-3.2l3.8-2.9c1.5,1,2.4,2,3.6,2.9h1.7s.7,0,.7,0c0-.4,0-.1-.2-.9-.2-.6-.3-1.3-.4-1.6h5.1c0,.4.2,1,.4,1.7,0,.7.1.4.2.8h2.2v2.3c1.1-1.5,1.6-3,2.1-4.8h4.9c0,.3-.2.8-.5,1.3-.2.5-.2-.3-.4,0h5.8v4.4h-7.9c-.2.5-.6.9-1,1.5h7.9v3.8l-1.9,2.1h2.9v4.2h-2.9v2.6c0,2.1-1.9,3.1-4.6,3.1h-3.4c-.2-1.1,0-2.1-.4-3,.8,0,.8,0,1.6,0s1.5-.4,1.5-1.2v-1.6h-3.1v-4.2h3.1v-.7l1.7-.8h-4.5v-3.2c-.6-.5-1.2-1-1.7-1.5h-3.9v1.7h4.7c0,1.2,0,3.7-.1,6.1,0,2.4,0,4.2-.1,5.3h0ZM126.1,47.2c0,3.1-.8,5.8-1.5,7.5h.7c.8,0,1.6-.4,1.6-1.1,0-.5.2-5.8.2-6.4h-1.1,0Z"/>
        </g>
        <path class="st0" d="M156.1,35h5.4l.9,2.3h12v4.3h-3.4c-1.8,3.6-3.5,5.7-6.4,8.3,4.6,2.2,9.9,3,9.9,3,0,0-2,3.4-2.8,4.6-5.1-.9-8.5-2.5-11.9-4.3-3.4,1.9-6.9,3.4-11.9,4.3-.9-1.4-2.8-4.6-2.8-4.6,0,0,4.5-.6,9.9-3-2.4-2.1-4.6-4.7-6.5-8.3h-3.4v-4.3h11.7l-.9-2.3h0ZM159.9,47.1c1.6-1.2,3.7-3.2,4.7-5.5h-9.4c1.1,2.3,3,4.3,4.7,5.5h0Z"/>
        <path class="st0" d="M177.6,45.6c-.4-1.1-1-2.3-1.7-3.4,3.4-1.8,5.4-4.1,6.9-7.2h5.5c-.2.4-.4.9-.6,1.2,1.6,1.3,3.2,3,5.7,5v-3.4h5v13.9h-5v-9.8l-1.5,1.7c0,.5,0,1.3-.1,2.5,0,1.2,0,2-.1,2.4,0,1.3-.6,2.3-1.5,2.8,1.7.4,3,.8,3.8,1-.2,1.1-.5,2-.7,2.7-.6,1.6-2.2,2.3-4.8,2.3h-5.2c-3.3,0-4.9-1.2-4.8-3.8v-8.3l-.9.5h0ZM185.6,39.7c-1.3,1.5-2,2.2-3.2,3.2h6.6c-1.6-1.5-2.3-2.1-3.4-3.2ZM189.3,52.6c.2-.4.3-.5.4-1.2-.4.1-.9.2-1.4.2-.4,0-3.8.2-3.8.2v-3.2s1.4,0,2,0c.1,0,.3,0,.4-.1.3-.2.4-.6.4-.9,0,0,.1-.8,0-.8h-4v5.5c0,1,.4,1.5,1.5,1.4h2.6c.9,0,1.5-.3,1.7-1h0ZM199.7,35h5.4v18.7c.2,2.5-1.4,3.8-4.6,3.8-1.3,0-3,0-4.9,0-.2-1.3-.4-2.5-.9-3.7,1.2,0,1.9,0,3.1,0,1.3,0,1.9-.5,1.9-1.6v-17.3h0Z"/>
      </g>
    </g>
    <g>
      <path class="st1" d="M4222.6,520.8c-.6-1.3-1.4-2.4-2.4-3.4-1-1-2.1-1.8-3.4-2.4,1.4,2.9,1.9,6.4,1.5,10.1-.8,7.6-5.1,16.4-12.3,24-.3.3-.6.6-.9.9l5.8,5.8.6-.6c7.4-7.7,11.9-16.6,12.7-24.3.4-3.8-.1-7.3-1.6-10.1Z"/>
      <path class="st1" d="M4199.2,544.2c-7.8,7.8-17,12.5-24.9,13.3-3.8.4-7.3,0-10.1-1.5.6,1.3,1.4,2.4,2.4,3.4,1,1,2.1,1.8,3.4,2.4,2.9,1.4,6.3,1.9,10.1,1.6,7.7-.8,16.7-5.2,24.3-12.7l.6-.6-5.8-5.8h0Z"/>
      <path class="st1" d="M4212.4,519.3c.2-2,.2-3.9-.1-5.7-.3-1.6-.7-3.1-1.4-4.4-.6-1.3-1.4-2.4-2.4-3.4-1-1-2.1-1.8-3.4-2.4-2.9-1.4-6.4-1.9-10.1-1.5-7.9.8-17.1,5.5-24.9,13.3h0s-5.8-5.8-5.8-5.8c-7.8,7.8-12.5,17-13.3,24.9-.4,3.8.1,7.3,1.5,10.1.6,1.3,1.4,2.4,2.4,3.4,1,1,2.1,1.8,3.4,2.4,1.4.7,2.8,1.1,4.4,1.4,1.8.3,3.7.3,5.7.1.8,0,1.7-.2,2.5-.4,7.3-1.4,15.4-5.9,22.4-12.9h0s0,0,0,0l5.8,5.8c7-7,11.4-15.1,12.9-22.4.2-.9.3-1.7.4-2.5Z"/>
    </g>
    <g>
      <path class="st1" d="M71.8,18.9c-.6-1.3-1.4-2.4-2.4-3.4-1-1-2.1-1.8-3.4-2.4,1.4,2.9,1.9,6.4,1.5,10.1-.8,7.6-5.1,16.4-12.3,24-.3.3-.6.6-.9.9l5.8,5.8.6-.6c7.4-7.7,11.9-16.6,12.7-24.3.4-3.8-.1-7.3-1.6-10.1Z"/>
      <path class="st1" d="M48.4,42.3c-7.8,7.8-17,12.5-24.9,13.3-3.8.4-7.3,0-10.1-1.5.6,1.3,1.4,2.4,2.4,3.4,1,1,2.1,1.8,3.4,2.4,2.9,1.4,6.3,1.9,10.1,1.6,7.7-.8,16.7-5.2,24.3-12.7l.6-.6-5.8-5.8h0Z"/>
      <path class="st1" d="M61.7,17.4c.2-2,.2-3.9-.1-5.7-.3-1.6-.7-3.1-1.4-4.4-.6-1.3-1.4-2.4-2.4-3.4-1-1-2.1-1.8-3.4-2.4-2.9-1.4-6.4-1.9-10.1-1.5-7.9.8-17.1,5.5-24.9,13.3h0s-5.8-5.8-5.8-5.8C5.6,15.1.9,24.3,0,32.2c-.4,3.8.1,7.3,1.5,10.1.6,1.3,1.4,2.4,2.4,3.4,1,1,2.1,1.8,3.4,2.4,1.4.7,2.8,1.1,4.4,1.4,1.8.3,3.7.3,5.7.1.8,0,1.7-.2,2.5-.4,7.3-1.4,15.4-5.9,22.4-12.9h0s0,0,0,0l5.8,5.8c7-7,11.4-15.1,12.9-22.4.2-.9.3-1.7.4-2.5Z"/>
    </g>
  </g>
</svg>