<?xml version="1.0" encoding="UTF-8"?>
<svg id="_图层_2" data-name="图层 2" xmlns="http://www.w3.org/2000/svg" viewBox="0 0 301.81 61.84">
  <defs>
    <style>
      .cls-1 {
        fill: #c0ac97;
      }

      .cls-2 {
        fill: #57599e;
      }
    </style>
  </defs>
  <g id="_图层_1-2" data-name="图层 1">
    <g>
      <g>
        <path class="cls-2" d="M53.31,12.2c-.33-.87-.81-1.63-1.45-2.27-1.02-1.02-2.35-1.64-3.92-1.88-5.1-.81-12.68,2.3-19.75,8.3,0,0,0,0,0,0-.34.29-.69.59-1.03.9-.38.35-.77.69-1.15,1.06l-.02.02c-.31.3-.62.6-.93.91l5.85,5.85c6.98-6.98,15.1-11.43,22.39-12.88Z"/>
        <path class="cls-2" d="M30.92,25.08c-5.33,5.33-9,11.24-10.51,16.32,5.08-1.52,10.99-5.19,16.32-10.52l-5.8-5.8Z"/>
        <path class="cls-2" d="M42.56,36.72c5.33-5.33,9-11.24,10.52-16.32-5.08,1.51-10.99,5.18-16.32,10.51l5.8,5.8Z"/>
        <path class="cls-2" d="M19.23,13.39c-.31.31-.61.62-.91.93l-.02.02c-.36.38-.71.76-1.06,1.15-.31.34-.61.68-.9,1.03h0c-6,7.07-9.11,14.64-8.3,19.75.25,1.57.86,2.9,1.88,3.92.64.64,1.4,1.12,2.27,1.45,1.44-7.29,5.89-15.4,12.88-22.39l-5.85-5.85Z"/>
        <path class="cls-2" d="M60.16,7.51c-.63-1.26-1.44-2.4-2.45-3.4-1-1-2.14-1.81-3.4-2.44l-4.3,4.3c3.78-.39,7.26.1,10.14,1.54Z"/>
        <path class="cls-2" d="M67.54,23.5l4.3-4.3c-.63-1.26-1.44-2.4-2.44-3.4-1-1-2.14-1.81-3.4-2.45,1.44,2.87,1.93,6.36,1.54,10.14Z"/>
        <path class="cls-2" d="M26,18.33l.02-.02c.38-.36.76-.71,1.15-1.06.34-.31.68-.6,1.03-.9,0,0,0,0,0,0,7.08-6.07,14.95-9.68,21.83-10.38l4.3-4.3c-2.87-1.44-6.35-1.93-10.15-1.54l-19.1,19.1c.31-.31.61-.61.93-.91Z"/>
        <path class="cls-2" d="M50.02,5.97l-2.08,2.08c1.57.25,2.9.86,3.92,1.88.64.64,1.12,1.4,1.45,2.27.86-.17,1.71-.3,2.55-.38l4.3-4.3c-2.87-1.44-6.35-1.93-10.14-1.54Z"/>
        <path class="cls-2" d="M61.57,11.95c-.26-1.59-.73-3.08-1.41-4.44l-4.3,4.3c2.01-.21,3.92-.17,5.72.13Z"/>
        <path class="cls-2" d="M55.2,47.5c-.3.32-.61.63-.92.94l19.11-19.11c.38-3.78-.11-7.26-1.55-10.13l-4.3,4.3c-.78,7.59-5.09,16.4-12.34,24Z"/>
        <path class="cls-2" d="M55.86,11.82l-2.1,2.1c.29,1.88.05,4.09-.67,6.49,2.42-.73,4.65-.97,6.54-.67l2.08-2.08c.2-2,.17-3.92-.13-5.71-1.79-.3-3.71-.34-5.72-.13Z"/>
        <path class="cls-2" d="M60.13,54.28l.61-.61c7.45-7.69,11.87-16.65,12.65-24.34l-19.11,19.11,5.84,5.84Z"/>
        <path class="cls-2" d="M29.33,61.71c7.7-.79,16.66-5.21,24.34-12.65l.61-.61-5.84-5.84-19.11,19.11Z"/>
        <path class="cls-2" d="M27.17,17.25c.34-.31.68-.61,1.03-.9-.34.29-.69.59-1.03.9Z"/>
        <path class="cls-2" d="M47.94,8.05l2.08-2.08c-6.88.7-14.75,4.31-21.83,10.38,7.07-6,14.64-9.11,19.75-8.3Z"/>
        <path class="cls-2" d="M20.18,12.46c.38-.36.76-.71,1.15-1.06-.38.34-.77.69-1.15,1.06Z"/>
        <path class="cls-2" d="M28.2,16.35s0,0,0,0c0,0,0,0,0,0Z"/>
        <path class="cls-2" d="M13.39,7.55C5.58,15.36.94,24.58.13,32.49L19.23,13.39l-5.84-5.84Z"/>
        <path class="cls-2" d="M44.17.13c-7.91.81-17.13,5.45-24.94,13.26l5.84,5.84L44.17.13Z"/>
        <path class="cls-2" d="M61.32,20.18c.17-.86.3-1.7.38-2.53l-2.08,2.08c.6.09,1.17.24,1.7.45Z"/>
        <path class="cls-2" d="M55.86,11.82c-.83.08-1.68.21-2.55.38.2.53.35,1.11.44,1.72l2.1-2.1Z"/>
        <path class="cls-2" d="M25.08,19.24c-6.98,6.98-11.43,15.1-12.88,22.39.53.21,1.11.35,1.72.44l17-17-5.84-5.84Z"/>
        <path class="cls-2" d="M36.76,30.92l17-17c-.09-.61-.24-1.19-.44-1.72-7.29,1.44-15.4,5.89-22.39,12.88l5.84,5.84Z"/>
        <path class="cls-2" d="M59.62,19.74l-17.02,17.02,5.84,5.84c6.99-6.99,11.45-15.12,12.88-22.42-.53-.2-1.1-.36-1.7-.45Z"/>
        <path class="cls-2" d="M19.74,47.94c.09.6.24,1.17.45,1.7,7.29-1.43,15.42-5.89,22.42-12.88l-5.84-5.84-17.02,17.02Z"/>
        <path class="cls-2" d="M53.08,20.4c-1.52,5.08-5.19,10.99-10.52,16.32l.04.04,17.02-17.02c-1.89-.3-4.13-.06-6.54.67Z"/>
        <path class="cls-2" d="M36.76,30.92c5.33-5.33,11.24-9,16.32-10.51.72-2.4.96-4.61.67-6.49l-17,17h0Z"/>
        <path class="cls-2" d="M20.4,41.4c-.73,2.42-.97,4.65-.67,6.54l17.02-17.02-.04-.04c-5.33,5.33-11.24,9-16.32,10.52Z"/>
        <path class="cls-2" d="M30.92,25.07l-17,17c1.88.29,4.09.05,6.49-.67,1.51-5.08,5.18-10.99,10.51-16.32h0Z"/>
        <path class="cls-2" d="M16.35,16.51h0c.29-.34.59-.69.9-1.03.34-.38.69-.77,1.06-1.15l.02-.02c.3-.31.6-.62.91-.93L.13,32.49c-.39,3.79.1,7.27,1.54,10.15l4.3-4.3c.7-6.88,4.31-14.75,10.38-21.83Z"/>
        <path class="cls-2" d="M23.5,55.86l-4.3,4.3c2.87,1.44,6.35,1.93,10.13,1.55l19.11-19.11c-7.81,7.81-17.04,12.45-24.94,13.26Z"/>
        <path class="cls-2" d="M16.35,16.51c.29-.34.59-.69.9-1.03-.31.34-.6.68-.9,1.03Z"/>
        <path class="cls-2" d="M16.35,16.51c-6.07,7.08-9.68,14.95-10.38,21.83l2.08-2.08c-.81-5.1,2.3-12.68,8.3-19.75Z"/>
        <path class="cls-2" d="M16.35,16.51h0s0,0,0,0Z"/>
        <path class="cls-2" d="M17.25,15.48c.35-.38.69-.77,1.06-1.15-.36.38-.71.76-1.06,1.15Z"/>
        <path class="cls-2" d="M20.4,41.4c-2.4.72-4.61.96-6.49.67l-2.1,2.1c-.21,2.01-.17,3.92.13,5.72,1.79.3,3.7.34,5.71.13l2.08-2.08c-.3-1.89-.06-4.13.67-6.54Z"/>
        <path class="cls-2" d="M11.82,44.17l2.1-2.1c-.61-.09-1.19-.24-1.72-.44-.17.86-.3,1.71-.38,2.55Z"/>
        <path class="cls-2" d="M17.66,50.02c.83-.08,1.67-.21,2.53-.38-.2-.53-.36-1.1-.45-1.7l-2.08,2.08Z"/>
        <path class="cls-2" d="M12.2,41.63c-.87-.33-1.63-.81-2.27-1.45-1.02-1.02-1.64-2.35-1.88-3.92l-2.08,2.08c-.39,3.78.1,7.26,1.54,10.14l4.3-4.3c.08-.83.21-1.68.38-2.55Z"/>
        <path class="cls-2" d="M11.82,44.17l-4.3,4.3c1.36.68,2.85,1.15,4.44,1.41-.3-1.79-.34-3.71-.13-5.72Z"/>
        <path class="cls-2" d="M13.36,54.32c.63,1.26,1.45,2.4,2.45,3.4s2.14,1.81,3.4,2.44l4.3-4.3c-3.78.39-7.27-.1-10.14-1.54Z"/>
        <path class="cls-2" d="M5.97,38.34l-4.3,4.3c.63,1.26,1.44,2.4,2.44,3.4,1,1,2.14,1.82,3.4,2.45-1.44-2.87-1.93-6.35-1.54-10.14Z"/>
      </g>
      <g>
        <path class="cls-1" d="M175.3,14.38c1.65-.97,2.52-2.59,2.52-4.69,0-2.76-1.43-6.04-8.26-6.04h-17.17v22.28h17.92c6.98,0,8.45-3.37,8.45-6.2,0-2.55-1.19-4.39-3.45-5.35ZM169.08,12.03h-9.87v-2.73h9.87c1.19,0,1.87.5,1.87,1.37s-.68,1.37-1.87,1.37ZM159.21,17.42h10.71c1.25,0,1.96.52,1.96,1.43s-.71,1.46-1.96,1.46h-10.71v-2.89Z"/>
        <path class="cls-1" d="M195.84,12.58v-6.36h-.2c-4.44,0-7.57,1.25-9.31,3.72v-3.15h-6.36v19.15h6.36v-7.35c0-4.2,2.78-6,9.31-6h.2Z"/>
        <path class="cls-1" d="M215.56,9.3c-1.93-2.05-4.91-3.09-8.87-3.09-7.28,0-11.3,3.6-11.3,10.14s4.01,10.14,11.3,10.14c3.96,0,6.94-1.04,8.87-3.09v2.53h6.36V6.77h-6.36v2.53ZM208.66,20.38c-6.12,0-6.9-2.15-6.9-4.02s.78-4.02,6.9-4.02,6.9,2.15,6.9,4.02-.78,4.02-6.9,4.02Z"/>
        <path class="cls-1" d="M238.4,6.21c-3.65,0-6.44,1.06-8.28,3.15v-2.59h-6.36v19.15h6.36v-9.01c0-3.12,2.25-4.84,6.34-4.84s6.06,1.65,6.06,4.9v8.95h6.36v-8.95c0-7.04-3.63-10.76-10.48-10.76Z"/>
        <path class="cls-1" d="M269.73,9.3c-1.93-2.05-4.91-3.09-8.87-3.09-7.28,0-11.3,3.6-11.3,10.14s4.01,10.14,11.3,10.14c3.96,0,6.94-1.04,8.87-3.09v2.53h6.36V.52h-6.36v8.78ZM262.83,20.38c-6.12,0-6.9-2.15-6.9-4.02s.78-4.02,6.9-4.02,6.9,2.15,6.9,4.02-.78,4.02-6.9,4.02Z"/>
        <path class="cls-1" d="M289.49,13.9c-5.38,0-5.65-.53-5.65-1.4,0-.76.43-1.4,5.65-1.4s5.65.82,5.65,1.99v.2h6.36v-.2c0-4.83-3.59-6.89-12.01-6.89-10.59,0-12.01,3.12-12.01,6.17,0,4.07,1.97,6.42,12.01,6.42,5.7,0,5.96.48,5.96,1.4,0,.77-.45,1.4-5.96,1.4s-5.96-.74-5.96-1.96v-.2h-6.36v.2c0,4.8,3.69,6.86,12.33,6.86s12.33-1.73,12.33-6.17c0-4.16-1.97-6.42-12.33-6.42Z"/>
        <path class="cls-1" d="M104.42,15.35c0,3.26-2.11,4.77-6.65,4.77s-6.65-1.52-6.65-4.77V3.65h-6.83v11.7c0,4.16,1.75,11.14,13.48,11.14s13.51-6.98,13.51-11.14V3.65h-6.86v11.7Z"/>
        <path class="cls-1" d="M128.33,6.21c-3.97,0-6.94,1.04-8.84,3.08v-2.52h-6.36v25.4h6.36v-8.77c1.9,2.04,4.87,3.08,8.84,3.08,7.28,0,11.3-3.6,11.3-10.14s-4.01-10.14-11.3-10.14ZM126.36,12.33c6.12,0,6.9,2.15,6.9,4.02s-.78,4.02-6.9,4.02-6.87-2.15-6.87-4.02.78-4.02,6.87-4.02Z"/>
        <rect class="cls-1" x="140.67" y="19.85" width="9.85" height="6.07"/>
      </g>
      <g>
        <g>
          <path class="cls-1" d="M92.23,34.97h7.14s0,6.91,0,6.91h10.19s0,5.11,0,5.11h-10.19v5.02h12.25s0,5.12,0,5.12h-28.88s0-5.12,0-5.12h9.49s0-17.03,0-17.03Z"/>
          <path class="cls-1" d="M116.49,41.34c.32.26.85.62,1.58,1.07,1.21.91,3.21,2.41,3.77,2.87l-3.29,2.94c-.57-.52-2.56-1.97-3.77-2.88-.73-.59-1.26-1.01-1.58-1.27l3.29-2.73ZM116.11,48.46l5,.98c-.97,2.99-2.15,5.89-2.8,8.68l-5-1.81c.73-2.02,1.9-4.14,2.8-7.85ZM130.8,54.8c.08,1.89-.97,2.86-3.16,2.93h-1.21c-.65.06-1.13.1-1.46.1-.08-.26-.16-.65-.24-1.17-.16-.52-.28-.91-.36-1.17-.22.65-.64,1.34-1.46,2.66-1.25-1.01-2.97-1.39-3.96-2.07,1.37-2.08,2.47-5.2,2.55-9.37,0-2.02.04-3.67.12-4.98h-1.14s0-2.83,0-2.83l-2.55,1.76c-.81-.78-2.14-1.85-4-3.22l3.8-2.87c1.46.98,2.42,1.95,3.64,2.93l1.69-.02h.67c-.08-.39-.05-.14-.21-.92-.16-.59-.28-1.26-.36-1.59h5.1c.08.39.2.97.36,1.69.08.72.1.43.19.82h2.18s.06,2.3.06,2.3c1.05-1.5,1.49-3.05,2.06-4.81h4.85c-.08.26-.24.85-.49,1.31-.16.52-.2-.26-.36,0h5.83s0,4.38,0,4.38h-7.89c-.24.46-.57.94-.97,1.46h7.89s0,3.78,0,3.78l-1.93,2.07h2.9s0,4.15,0,4.15h-2.9v2.58c.08,2.08-1.95,3.12-4.62,3.12-.81,0-1.94,0-3.4,0-.16-1.11-.04-2.11-.36-3.02.81.07.84.1,1.57.1.97,0,1.46-.39,1.46-1.17v-1.61h-3.15s0-4.15,0-4.15h3.15v-.68s1.7-.85,1.7-.85h-4.48s0-3.25,0-3.25c-.65-.52-1.21-1.01-1.7-1.46h-3.88c0,.26,0,1.38,0,1.7h4.73c0,1.17-.04,3.7-.12,6.1,0,2.41-.04,4.16-.12,5.27ZM126.07,47.21c-.08,3.06-.81,5.8-1.46,7.49h.72c.81,0,1.58-.36,1.58-1.07.08-.52.24-5.77.24-6.42h-1.09Z"/>
        </g>
        <path class="cls-1" d="M156.09,34.97h5.4s.92,2.34.92,2.34h12.02s-.01,4.27-.01,4.27h-3.43c-1.82,3.63-3.5,5.65-6.42,8.3,4.62,2.23,9.94,3.03,9.94,3.03,0,0-2.01,3.4-2.76,4.64-5.13-.9-8.46-2.45-11.87-4.31-3.35,1.89-6.94,3.41-11.87,4.31-.85-1.41-2.76-4.64-2.76-4.64,0,0,4.52-.56,9.94-3.03-2.39-2.13-4.65-4.69-6.46-8.3h-3.41s0-4.27,0-4.27h11.73s-.95-2.34-.95-2.34ZM159.88,47.08c1.64-1.2,3.66-3.22,4.72-5.5h-9.43c1.09,2.28,3.04,4.26,4.72,5.5Z"/>
        <path class="cls-1" d="M177.59,45.57c-.41-1.14-.99-2.28-1.72-3.42,3.45-1.84,5.39-4.14,6.95-7.18h5.49c-.25.38-.45.87-.62,1.19,1.64,1.27,3.17,2.95,5.72,5.04v-3.42s5,0,5,0v13.88s-5,0-5,0v-9.79s-1.53,1.71-1.53,1.71c0,.51-.04,1.33-.12,2.47,0,1.2-.04,2-.12,2.38-.08,1.33-.58,2.28-1.48,2.85,1.72.44,3,.76,3.82.95-.25,1.14-.49,2.03-.74,2.66-.58,1.58-2.18,2.34-4.8,2.28h-5.17c-3.28.06-4.89-1.2-4.8-3.8v-8.27s-.86.48-.86.48ZM185.59,39.65c-1.31,1.52-2.02,2.21-3.25,3.16h6.63c-1.56-1.46-2.31-2.14-3.38-3.16ZM189.29,52.63c.16-.38.29-.47.37-1.17-.41.13-.86.19-1.35.19-.41.06-3.82.19-3.82.19v-3.23s1.43.06,2.03-.05c.15-.03.3-.07.44-.14.33-.19.35-.61.42-.94.02-.08.12-.78.07-.78h-3.99v5.45c-.08,1.01.41,1.49,1.48,1.43h2.64c.9,0,1.48-.32,1.72-.95ZM199.68,34.97h5.37s0,18.69,0,18.69c.16,2.53-1.35,3.8-4.56,3.8-1.31.06-2.96.09-4.93.09-.17-1.27-.45-2.51-.86-3.71,1.23.06,1.9.09,3.13.09,1.31.06,1.93-.48,1.85-1.62v-17.35Z"/>
      </g>
    </g>
  </g>
</svg>